<svg xmlns="http://www.w3.org/2000/svg" xmlns:xlink="http://www.w3.org/1999/xlink" version="1.1" x="0px" y="0px" viewBox="0 0 100 125" style="enable-background:new 0 0 100 100;" xml:space="preserve"><path d="M27.4,61.6v11.1c0,0.3-0.3,0.6-0.6,0.6c-0.3,0-0.6-0.3-0.6-0.6V61.6c0-0.3,0.3-0.6,0.6-0.6C27.1,61,27.4,61.3,27.4,61.6z   M73.4,61c-0.3,0-0.6,0.3-0.6,0.6v11.1c0,0.3,0.3,0.6,0.6,0.6c0.3,0,0.6-0.3,0.6-0.6V61.6C74,61.3,73.7,61,73.4,61z M80,48.2v9.9  c0,0.3-0.3,0.6-0.6,0.6H20.6c-0.3,0-0.6-0.3-0.6-0.6v-9.9c0-0.3,0.3-0.6,0.6-0.6h58.8C79.7,47.6,80,47.8,80,48.2z M78.8,48.7H21.2  v8.8h57.6V48.7z M23.7,33.2c0-3.5,2.9-6.4,6.4-6.4c3.5,0,6.4,2.9,6.4,6.4c0,3.5-2.9,6.4-6.4,6.4C26.6,39.6,23.7,36.7,23.7,33.2z   M24.9,33.2c0,2.9,2.4,5.3,5.3,5.3s5.3-2.4,5.3-5.3c0-2.9-2.4-5.3-5.3-5.3S24.9,30.3,24.9,33.2z M43.5,43.7h29.9  c0.3,0,0.6-0.3,0.6-0.6s-0.3-0.6-0.6-0.6H43.5c-2.4,0-4.4-2-4.4-4.4s2-4.4,4.4-4.4h8.3c0.3,0,0.6-0.3,0.6-0.6c0-0.3-0.3-0.6-0.6-0.6  h-8.3c-3.1,0-5.6,2.5-5.6,5.6C37.9,41.2,40.4,43.7,43.5,43.7z M22.3,43.7H35c0.3,0,0.6-0.3,0.6-0.6s-0.3-0.6-0.6-0.6H22.3  c-0.3,0-0.6,0.3-0.6,0.6S22,43.7,22.3,43.7z"/><text x="0" y="115" fill="#000000" font-size="5px" font-weight="bold" font-family="'Helvetica Neue', Helvetica, Arial-Unicode, Arial, Sans-serif">Created by Mello</text><text x="0" y="120" fill="#000000" font-size="5px" font-weight="bold" font-family="'Helvetica Neue', Helvetica, Arial-Unicode, Arial, Sans-serif">from the Noun Project</text></svg>