<svg xmlns="http://www.w3.org/2000/svg" xmlns:xlink="http://www.w3.org/1999/xlink" version="1.1" x="0px" y="0px" viewBox="0 0 100 125" enable-background="new 0 0 100 100" xml:space="preserve"><g><g><g><path fill="#000000" d="M74.585,27.052c-0.055,0-0.112-0.009-0.167-0.029c-0.26-0.092-0.396-0.378-0.304-0.638l4.632-13.083     L65.349,8.559l-4.011,11.328c-0.092,0.26-0.378,0.396-0.638,0.304s-0.396-0.378-0.304-0.638l4.177-11.799     c0.091-0.26,0.377-0.396,0.638-0.304l14.339,5.077c0.125,0.044,0.227,0.136,0.284,0.256s0.064,0.257,0.02,0.382l-4.799,13.554     C74.984,26.924,74.791,27.052,74.585,27.052z"/></g><g><path fill="#000000" d="M73.128,16.173c-0.055,0-0.112-0.009-0.167-0.029l-4.905-1.736c-0.26-0.092-0.396-0.377-0.304-0.638     c0.091-0.26,0.377-0.397,0.638-0.304l4.905,1.736c0.26,0.092,0.396,0.377,0.304,0.638C73.527,16.045,73.334,16.173,73.128,16.173     z"/></g><g><path fill="#000000" d="M72.179,18.851c-0.055,0-0.112-0.009-0.167-0.029l-4.904-1.736c-0.26-0.092-0.396-0.378-0.304-0.638     c0.091-0.26,0.377-0.396,0.638-0.304l4.904,1.736c0.26,0.092,0.396,0.378,0.304,0.638C72.578,18.723,72.385,18.851,72.179,18.851     z"/></g><g><path fill="#000000" d="M71.231,21.529c-0.055,0-0.112-0.009-0.167-0.029l-4.904-1.736c-0.26-0.092-0.396-0.378-0.304-0.638     c0.091-0.26,0.378-0.397,0.638-0.304l4.904,1.736c0.26,0.092,0.396,0.378,0.304,0.638C71.63,21.401,71.437,21.529,71.231,21.529z     "/></g></g><g><path fill="#000000" d="M39.857,69.276h-5.746c-0.276,0-0.5-0.224-0.5-0.5s0.224-0.5,0.5-0.5h5.393l3.406-9.62    c0.092-0.26,0.377-0.396,0.638-0.304c0.26,0.092,0.396,0.378,0.304,0.638l-3.524,9.953C40.258,69.143,40.069,69.276,39.857,69.276    z"/></g><g><path fill="#000000" d="M45.634,52.959c-0.055,0-0.112-0.009-0.167-0.029c-0.26-0.092-0.396-0.378-0.304-0.638l12.146-34.301    c0.048-0.135,0.152-0.244,0.285-0.297c0.135-0.053,0.284-0.046,0.412,0.018l19.861,10.046c0.225,0.114,0.33,0.376,0.246,0.613    L73.68,40.888c-0.092,0.26-0.377,0.397-0.638,0.304c-0.26-0.092-0.396-0.378-0.304-0.638l4.285-12.102l-18.961-9.591    L46.105,52.626C46.033,52.832,45.84,52.959,45.634,52.959z"/></g><g><path fill="#000000" d="M50.41,89.742H34.111c-0.276,0-0.5-0.224-0.5-0.5s0.224-0.5,0.5-0.5H50.41    c5.272,0,6.756-4.199,8.327-8.645l0.116-0.328c1.92-5.761,4.022-11.582,6.054-17.21c1.033-2.861,2.066-5.722,3.081-8.586    l2.496-7.05c0.092-0.26,0.377-0.396,0.638-0.304c0.26,0.092,0.396,0.378,0.304,0.638l-2.496,7.05    c-1.015,2.867-2.048,5.729-3.082,8.592c-2.031,5.623-4.13,11.438-6.05,17.196l-0.119,0.336    C58.137,84.794,56.39,89.742,50.41,89.742z"/></g><g><path fill="#000000" d="M34.111,89.742H18.484c-0.276,0-0.5-0.224-0.5-0.5V68.776c0-0.276,0.224-0.5,0.5-0.5h15.627    c0.276,0,0.5,0.224,0.5,0.5v20.465C34.611,89.518,34.388,89.742,34.111,89.742z M18.984,88.742h14.627V69.276H18.984V88.742z"/></g><g><g><path fill="#000000" d="M30.264,73.649h-7.932c-0.276,0-0.5-0.224-0.5-0.5s0.224-0.5,0.5-0.5h7.932c0.276,0,0.5,0.224,0.5,0.5     S30.54,73.649,30.264,73.649z"/></g><g><path fill="#000000" d="M30.33,85.369h-8.063c-0.276,0-0.5-0.224-0.5-0.5s0.224-0.5,0.5-0.5h8.063c0.276,0,0.5,0.224,0.5,0.5     S30.606,85.369,30.33,85.369z"/></g></g><g><path fill="#000000" d="M57.783,84.442c-0.261,0-0.481-0.203-0.499-0.468c-0.113-1.754-0.554-3.443-1.309-5.02    c-0.734-1.531-1.736-2.901-2.978-4.07c-1.246-1.172-2.677-2.089-4.253-2.728c-0.256-0.104-0.379-0.395-0.276-0.651    c0.104-0.256,0.396-0.38,0.651-0.276c1.692,0.685,3.228,1.669,4.564,2.926c1.332,1.254,2.406,2.723,3.193,4.367    c0.811,1.692,1.284,3.504,1.405,5.387c0.018,0.275-0.191,0.513-0.467,0.531C57.805,84.442,57.793,84.442,57.783,84.442z"/></g><g><path fill="#000000" d="M72.04,44.39c-0.13,0-0.26-0.05-0.35-0.15c-0.09-0.09-0.15-0.22-0.15-0.35c0-0.13,0.06-0.26,0.15-0.35    c0.18-0.19,0.52-0.19,0.71,0c0.09,0.09,0.14,0.22,0.14,0.35c0,0.13-0.05,0.26-0.14,0.35C72.3,44.34,72.17,44.39,72.04,44.39z"/></g><g><path fill="#000000" d="M44.5,56.06c-0.13,0-0.26-0.06-0.35-0.15c-0.09-0.09-0.14-0.22-0.14-0.35c0-0.14,0.05-0.26,0.14-0.36    c0.19-0.18,0.52-0.18,0.71,0c0.09,0.1,0.14,0.23,0.14,0.36c0,0.13-0.05,0.26-0.14,0.35C44.77,56,44.64,56.06,44.5,56.06z"/></g></g><text x="0" y="115" fill="#000000" font-size="5px" font-weight="bold" font-family="'Helvetica Neue', Helvetica, Arial-Unicode, Arial, Sans-serif">Created by Linseed Studio</text><text x="0" y="120" fill="#000000" font-size="5px" font-weight="bold" font-family="'Helvetica Neue', Helvetica, Arial-Unicode, Arial, Sans-serif">from the Noun Project</text></svg>