<svg xmlns:dc="http://purl.org/dc/elements/1.1/" xmlns:cc="http://creativecommons.org/ns#" xmlns:rdf="http://www.w3.org/1999/02/22-rdf-syntax-ns#" xmlns:svg="http://www.w3.org/2000/svg" xmlns="http://www.w3.org/2000/svg" xmlns:sodipodi="http://sodipodi.sourceforge.net/DTD/sodipodi-0.dtd" xmlns:inkscape="http://www.inkscape.org/namespaces/inkscape" version="1.1" x="0px" y="0px" viewBox="0 0 100 125"><g transform="translate(0,-952.36218)"><path style="font-size:medium;font-style:normal;font-variant:normal;font-weight:normal;font-stretch:normal;text-indent:0;text-align:start;text-decoration:none;line-height:normal;letter-spacing:normal;word-spacing:normal;text-transform:none;direction:ltr;block-progression:tb;writing-mode:lr-tb;text-anchor:start;baseline-shift:baseline;opacity:1;color:#000000;fill:#000000;fill-opacity:1;stroke:none;stroke-width:2;marker:none;visibility:visible;display:inline;overflow:visible;enable-background:accumulate;font-family:Sans;-inkscape-font-specification:Sans" d="M 48 11 C 47 11 45.563677 11.0545 44.21875 12.25 C 42.873823 13.44549 41.588153 15.55659 40.0625 19.625 C 39.191841 21.94674 36.830992 24.06121 33.625 26.0625 C 30.419008 28.06379 26.429292 29.96911 22.53125 32 C 18.633208 34.03089 14.811932 36.20396 11.90625 38.90625 C 9.0005676 41.60854 7 44.92793 7 49 L 7 69 A 1.0001 1.0001 0 0 0 7 69.03125 C 7.494338 79.62285 18.621404 89 35 89 L 41 89 L 43 89 L 52 89 C 55.86072 89 59 85.8607 59 82 C 59 80.7004 58.439736 79.60025 58.21875 78.96875 C 60.280082 78.92075 61.829373 78.27285 62.75 77.15625 C 63.707237 75.99535 63.944169 74.5151 63.875 73.0625 C 63.759994 70.6472 62.892236 68.31355 62.3125 66.71875 C 65.522222 66.08265 68.000061 63.3941 68 60 C 67.999962 57.7263 66.828946 56.2026 65.59375 55 L 79 55 L 85.9375 55 L 86 55 A 1.0001 1.0001 0 0 0 86.09375 54.96875 C 86.15956 54.96775 86.215885 54.9395 86.28125 54.9375 A 1.0001 1.0001 0 0 0 86.375 54.90625 C 90.050181 54.69835 93 51.7264 93 48 A 1.0001 1.0001 0 0 0 92.96875 47.78125 A 1.0001 1.0001 0 0 0 92.90625 47.625 A 1.0001 1.0001 0 0 0 92.90625 47.59375 C 92.685037 43.93047 89.717386 41 86 41 L 55 41 C 55 41 53.097826 40.993 51.25 40.53125 C 50.326087 40.30027 49.423085 39.9345 48.84375 39.5 C 48.264415 39.0655 48 38.66667 48 38 C 48 35.9 49.240614 34.67579 50.78125 32.75 C 52.321886 30.82421 54 28.25 54 24 C 54 21.83334 54.01662 18.77163 53.34375 16.125 C 53.007316 14.80169 52.487991 13.55902 51.625 12.59375 C 50.762009 11.62848 49.505568 11 48 11 z M 48 13 C 48.994462 13 49.612982 13.2986 50.15625 13.90625 C 50.699518 14.5139 51.117686 15.45873 51.40625 16.59375 C 51.983377 18.86379 52 21.83333 52 24 C 52 27.75 50.678124 29.67579 49.21875 31.5 C 47.759376 33.32421 46 35.1 46 38 C 46 39.33333 46.735581 40.40325 47.65625 41.09375 C 48.576919 41.78425 49.673908 42.19973 50.75 42.46875 C 52.902184 43.00679 55 43 55 43 L 86 43 C 88.787297 43 91 45.21267 91 48 A 1.0001 1.0001 0 0 0 91 48.09375 C 90.94961 50.81395 88.787407 52.9671 86.0625 53 C 86.04135 53.0003 86.02122 53 86 53 L 85.8125 53 L 81 53 L 81 50 A 1.0001 1.0001 0 0 0 79.875 48.96875 A 1.0001 1.0001 0 0 0 79 50 L 79 53 L 63 53 A 1.0001 1.0001 0 0 0 62.375 54.78125 C 63.790232 55.91975 65.99996 57.5856 66 60 C 66.00005 62.7873 63.787297 65 61 65 A 1.0001 1.0001 0 0 0 60.0625 66.3125 C 60.594101 67.9074 61.76335 70.81155 61.875 73.15625 C 61.93082 74.32865 61.730264 75.28595 61.21875 75.90625 C 60.707236 76.52665 59.8125 77 58 77 C 57.666667 77 57.353911 77.01805 57.03125 77.15625 C 56.708589 77.29455 56.396487 77.5957 56.25 77.9375 C 55.957026 78.6211 56.16642 79.1243 56.3125 79.5625 C 56.604664 80.439 57 81.3333 57 82 C 57 84.7873 54.78732 87 52 87 L 43 87 L 41 87 L 35 87 C 19.41307 87 9.4720077 78.2135 9 69 L 9 68.9375 L 9 49 C 9 45.57205 10.626714 42.84373 13.28125 40.375 C 15.935786 37.90627 19.618617 35.75593 23.46875 33.75 C 27.318883 31.74407 31.329623 29.87735 34.6875 27.78125 C 38.045377 25.68515 40.800859 23.37477 41.9375 20.34375 C 43.411847 16.41216 44.626177 14.55451 45.53125 13.75 C 46.436323 12.94479 47 13 48 13 z M 79.78125 61 A 1.0001 1.0001 0 0 0 79.15625 61.4375 C 77.050591 64.6347 74.787346 68.19385 73.03125 71.59375 C 71.275154 74.99355 69.999999 78.221 70 81 C 70 83.3624 71.200517 85.4164 73.03125 86.8125 C 74.861983 88.2086 77.317813 89 80 89 C 82.682187 89 85.138017 88.2086 86.96875 86.8125 C 88.799483 85.4164 90 83.3624 90 81 C 90 78.221 88.724845 74.99355 86.96875 71.59375 C 85.212655 68.19385 82.949411 64.6347 80.84375 61.4375 A 1.0001 1.0001 0 0 0 79.78125 61 z M 80 63.9375 C 81.821648 66.7384 83.732017 69.6822 85.1875 72.5 C 86.881405 75.7794 88 78.8733 88 81 C 88 82.7014 87.176626 84.13075 85.75 85.21875 C 84.323374 86.30665 82.288375 87 80 87 C 77.711626 87 75.676626 86.30665 74.25 85.21875 C 72.823374 84.13075 72 82.7014 72 81 C 72 78.8733 73.118595 75.7794 74.8125 72.5 C 76.267984 69.6822 78.178353 66.7384 80 63.9375 z " transform="translate(0,952.36218)"/></g><text x="0" y="115" fill="#000000" font-size="5px" font-weight="bold" font-family="'Helvetica Neue', Helvetica, Arial-Unicode, Arial, Sans-serif">Created by johartcamp</text><text x="0" y="120" fill="#000000" font-size="5px" font-weight="bold" font-family="'Helvetica Neue', Helvetica, Arial-Unicode, Arial, Sans-serif">from the Noun Project</text></svg>