<svg xmlns="http://www.w3.org/2000/svg" xmlns:xlink="http://www.w3.org/1999/xlink" version="1.1" x="0px" y="0px" viewBox="0 0 128 160" style="enable-background:new 0 0 128 128;" xml:space="preserve"><g><path d="M42.9360008,61.6474991c-0.1943054-0.5165977-0.771904-0.775898-1.2885056-0.5834999   c-9.0405998,3.4037971-24.4244003,11.5620003-25.8701992,27.8754997l-6.7616997,37.8847046   c-0.0971003,0.5439987,0.2651997,1.0634995,0.8085995,1.1601944C9.8837957,127.9951019,9.9428959,128,10.0010004,128   c0.4755955,0,0.8968954-0.339798,0.9833956-0.8242035l6.7733994-37.9716949   c1.3604012-15.3115005,15.9932041-23.030304,24.594698-26.2681007   C42.8690948,62.7411995,43.130394,62.1646004,42.9360008,61.6474991z"/><path d="M33.6376953,117.6513977c-0.1436005-0.3857956-0.5088005-0.6445999-0.9203987-0.6513977   c-0.3848,0.0313034-0.785202,0.2393036-0.9419003,0.6201019l-3.700201,9   c-0.2099991,0.5107956,0.0337009,1.094696,0.5444012,1.3046951C28.7440948,127.9756012,28.8729992,128,28.9994965,128   c0.3935986,0,0.7665997-0.2333984,0.9252987-0.6201019l2.7279987-6.6347961l2.4097023,6.4882965   c0.1923981,0.517601,0.769001,0.782196,1.2855988,0.5889053c0.5181007-0.1924057,0.7817993-0.767601,0.5894012-1.2862015   L33.6376953,117.6513977z"/><path d="M96.6376953,117.6513977C96.4940948,117.2656021,96.128891,117.0067978,95.7172928,117   c-0.3852921,0.0313034-0.785202,0.2393036-0.9419022,0.6201019l-3.7001953,9   c-0.2099991,0.5107956,0.033699,1.094696,0.5443954,1.3046951C91.7440948,127.9756012,91.8730011,128,91.9994965,128   c0.3936005,0,0.7665939-0.2333984,0.9253006-0.6201019l2.7279968-6.6347961l2.4096985,6.4882965   c0.1929016,0.517601,0.767601,0.782196,1.2855988,0.5889053c0.5181046-0.1924057,0.7817993-0.767601,0.5894012-1.2862015   L96.6376953,117.6513977z"/><path d="M114.4135971,86.7157974c-0.0044022-0.0370941-0.0108032-0.0741959-0.019104-0.1112976   c-4.9173965-21.3788986-31.7621994-27.1884995-32.8906021-27.4229012c-1.032196-0.2274971-1.4633942-1.5830002-1.4276962-2.7460976   c0.044899-1.4423027,0.7646027-3.0039024,2.2728958-3.2402c4.0674057-0.6362,6.0923004-2.3003006,7.222702-5.9341011   l0.0781021-0.2358017c0.4922028-1.4623985,1.3007965-3.8642998-0.0570984-4.6693993   c-0.3379059-0.3574982-1.2740021-1.5107994-1.7919998-2.2579002l0.4100952-0.1200981   c0.7935028-0.2318993,1.7237015-0.5039024,1.9380035-0.5678024c0.4203949-0.1245995,1.5381012-0.4545975,1.6557999-1.6747971   c0.0531998-0.5586014,0.0936966-1.1197014,0.1337967-1.6812019l0.0200043-0.2753983   c0.5615005-0.3134995,2.0425034-1.0810013,3.3700943-1.7549019c1.0860062-0.5341988,1.4707031-1.3120003,1.6021042-1.8700981   c0.3436966-1.460001-0.6675034-2.8433018-0.7875977-3.0010014l-7.4619064-9.6870003   c0.6084061-4.7889996-0.5610962-9.1205997-3.3940964-12.549799C81.889595,2.8032,76.282692,0.2886,69.9047928,0.0161   C67.114296-0.0991,63.5932961,0.4463,60.2577934,1.522c-7.0453987,2.2684999-12.5819969,7.7153001-15.588398,15.3373995   c-3.1185989,7.9057007-1.8260994,15.9969997,3.6391983,22.7827015l0.5102005,0.6317978   c4.1744003,5.1641006,7.4712067,9.2427025,3.964901,15.407299c-0.2729988,0.4804001-0.1054993,1.0908012,0.3745003,1.3637009   c0.4813995,0.2730026,1.0908051,0.1049995,1.3638039-0.3745003c4.1810951-7.3505974-0.0532036-12.588398-4.1475029-17.6537971   l-0.5083008-0.6294022c-4.9946022-6.2011986-6.1796989-13.5858994-3.3363991-20.7938995   C49.3124962,10.5386,54.4057961,5.5072999,60.8715935,3.4252999C63.9901962,2.4194,67.253891,1.9028,69.8197937,2.0142   c5.8125,0.2480001,10.8882065,2.4989998,13.9258041,6.1757002c2.5454025,3.0815992,3.5478973,7.0263996,2.8983994,11.4077997   c-0.039505,0.2684994,0.0312958,0.5415001,0.1972961,0.7567997l7.7108994,10.0098   c0.1856003,0.25,0.5346985,0.9043007,0.4307022,1.3344002c-0.0181046,0.0746994-0.0727005,0.3022995-0.5483017,0.5367012   c-3.7529984,1.9037971-3.8725967,2.0335999-4.0009995,2.1722984c-0.4141006,0.4346008-0.4492035,0.9307022-0.4735947,1.2754021   l-0.0162048,0.2279968c-0.0361023,0.501503-0.071701,1.0020027-0.1175995,1.5   c-0.0576019,0.0230026-0.1397018,0.0503006-0.2465973,0.0816002l-2.9281998,0.8579025   c-0.4273071,0.1259995-0.9790039,0.4960976-1.1309052,1.1298981c-0.2426987,1.0381012,1.9766006,3.6068993,2.8208008,4.3945007   c0.0243988,0.2144012-0.0195007,0.8261986-0.5868988,2.5121994l-0.0923004,0.2793007   c-0.9092026,2.9229012-2.2753983,4.0293007-5.6224976,4.5531998c-2.6397018,0.4131012-3.8921051,2.8862991-3.9625015,5.1543007   c-0.0750961,2.4356003,1.1289978,4.3490982,3.0079041,4.7631989c0.2665939,0.0557022,26.6839981,5.7846985,31.3475952,25.8618011   l4.5737,40.114296C117.0644913,127.6240005,117.4970932,128,117.998497,128c0.0380936,0,0.0761948-0.0019989,0.1147995-0.0067978   c0.5487976-0.0625,0.942894-0.5577011,0.880394-1.1064987L114.4135971,86.7157974z"/><circle cx="47.9169998" cy="59.8334999" r="1"/><circle cx="67" cy="64" r="1"/><path d="M93.9994965,108.7304993C93.0531921,79.1083984,79.578598,73.9307022,75.4721909,73.0497971   c-0.7226944-0.1561966-1.7158966,0.0869064-2.2797928,0.5419998c-2.2490005,1.8271027-3.5855026,4.7578049-4.341301,8.0850067   l-1.8349991-1.5948029l0.4193954-12.0467987c0.019104-0.552803-0.4125977-1.0157013-0.964798-1.0342026   c-0.5444031-0.0362015-1.0150986,0.4121017-1.0342026,0.9637985l-0.4525986,13.0019989l3.4438019,2.9922028   c-0.2710037,1.842804-0.4012985,3.7528992-0.4296951,5.6288986l-1.6849976-1.6806946   c-1.1602097-1.1582031-3.0444107-1.2246017-4.2886086-0.1513062l-2.0263939,1.7470016   c-0.0307045-1.8496017-0.1601067-3.7285004-0.4267082-5.5429001l3.4409027-2.9902954l-0.4487-16.9961052   c-0.0142021-0.5522003-0.5-1.0248985-1.0259018-0.9730988c-0.5522003,0.0145988-0.9878006,0.4735985-0.9730988,1.025898   l0.4232979,16.0527039l-1.8398972,1.5985947c-0.7558022-3.3290939-2.0922012-6.259697-4.3417015-8.0868988   c-0.5615997-0.4540939-1.5556984-0.697197-2.2779007-0.5410004c-4.1068993,0.8809052-17.5814972,6.0586014-18.5277977,35.7490005   C34.0126953,109.1337967,34.355999,117,39.139595,117c0.6343002,0,1.3111-0.1493988,2.0112991-0.4433975l0.1543007-0.0643997   l0.1245003-0.1123047c1.4398994-1.2881012,5.8373985-4.6786957,8.8275986-4.9003983   c2.6231003-0.1151962,7.7730026-1.8983994,8.4771004-7.7461014c0.0879021-0.4423981,1.0776062-5.5546951,1.2475014-11.5751953   l3.3486977-2.8877029c0.4414063-0.3798981,1.1606026-0.3554993,1.5703011,0.0526962l3.1259995,3.1182022   c0.1919022,5.8809052,1.1460037,10.8163986,1.2269974,11.217804c0.7158051,5.9218979,5.8656998,7.705101,8.4589996,7.8182983   c3.6318054,0.2686005,8.8057022,4.8564987,8.8574066,4.9023972l0.125,0.1123047l0.1537933,0.0643997   C87.5492935,116.8506012,88.2260971,117,88.8603973,117C93.6439972,117,93.9872971,109.1337967,93.9994965,108.7304993z    M56.7606964,103.4188995c-0.6889,5.7002029-6.3535004,6.0508041-6.6211014,6.0644989   c-3.9920998,0.294899-9.0057983,4.5028992-9.9081993,5.2871017C39.8334961,114.9228973,39.4672966,115,39.139595,115   c-2.3670998,0-3.0780983-4.6464996-3.1400986-6.205101C36.9223938,79.8974991,50.2797966,75.5771027,53.0175934,75   c0.2261009,0,0.4692001,0.0967026,0.5293007,0.1445007C61.0536957,81.2422028,56.8163948,103.1240005,56.7606964,103.4188995z    M88.8603973,115c-0.3277054,0-0.6939011-0.0771027-1.0918045-0.2294998   c-0.9023972-0.7842026-5.9179993-4.9922028-9.9379959-5.2891006c-0.240303-0.0106964-5.8980026-0.3250961-6.6031036-6.1366959   c-0.0438995-0.2207031-4.2811966-22.1025009,3.2241974-28.1992035c0.0610046-0.0497971,0.2983093-0.1532974,0.6001053-0.1406021   c2.668396,0.5722046,16.025795,4.892601,16.9487,33.7217026C91.9408951,110.3535004,91.2362976,115,88.8603973,115z"/><path d="M50.2890968,85.0438995c-0.5279007-0.1611023-1.0860023,0.1397018-1.2460976,0.6669998   c-0.020504,0.0654984-2.0757027,6.6407013-7.1709023,7.2968979c-0.5479012,0.0713043-0.9346008,0.5723038-0.8638,1.1201019   C41.0731964,94.6317978,41.5033951,95,41.998497,95c0.0429993,0,0.0859985-0.0028992,0.1293983-0.0077972   c6.3876991-0.8242035,8.7328987-8.3828049,8.8296013-8.7041016C51.1166954,85.7598038,50.8173943,85.2031021,50.2890968,85.0438995   z"/><path d="M50.2890968,97.0438995c-0.5279007-0.1611023-1.0860023,0.1397018-1.2460976,0.6669998   c-0.020504,0.0654984-2.0757027,6.6407013-7.1709023,7.2968979c-0.5479012,0.0713043-0.9346008,0.5723038-0.8638,1.1201019   C41.0731964,106.6317978,41.5033951,107,41.998497,107c0.0429993,0,0.0859985-0.0028992,0.1293983-0.0077972   c6.3876991-0.8242035,8.7328987-8.3828049,8.8296013-8.7041016C51.1166954,97.7598038,50.8173943,97.2031021,50.2890968,97.0438995   z"/><path d="M84.1278915,93.0077972c-5.0951996-0.6561966-7.1503983-7.2313995-7.1708908-7.2968979   c-0.1601028-0.527298-0.717308-0.8281021-1.246109-0.6669998c-0.5282974,0.1592026-0.8275986,0.7159042-0.668396,1.2442017   c0.0966949,0.3212967,2.4419022,7.8798981,8.8295975,8.7041016C83.9154968,94.9971008,83.9584961,95,84.0014954,95   c0.4951019,0,0.9253006-0.3682022,0.9901962-0.8721008C85.0624924,93.580101,84.6757965,93.0791016,84.1278915,93.0077972z"/><path d="M84.1278915,105.0077972c-5.0951996-0.6561966-7.1503983-7.2313995-7.1708908-7.2968979   c-0.1601028-0.527298-0.717308-0.8281021-1.246109-0.6669998c-0.5282974,0.1592026-0.8275986,0.7159042-0.668396,1.2442017   c0.0966949,0.3212967,2.4419022,7.8798981,8.8295975,8.7041016C83.9154968,106.9971008,83.9584961,107,84.0014954,107   c0.4951019,0,0.9253006-0.3682022,0.9901962-0.8721008C85.0624924,105.580101,84.6757965,105.0791016,84.1278915,105.0077972z"/><path d="M108.9638901,39.0796013c0.0254059,0,0.0517044-0.0009995,0.0776062-0.002903l1.0351944-0.0795975   c0.550705-0.0424995,0.9629059-0.5230026,0.9204025-1.0737991c-0.0425034-0.5503006-0.5249023-0.9598999-1.0737991-0.9204025   l-1.0351028,0.0796013c-0.5507965,0.0424995-0.9628983,0.5229988-0.9203949,1.0737991   C108.0082932,38.6806984,108.4462967,39.0796013,108.9638901,39.0796013z"/><path d="M102.9813919,39.5400009c0.0259018,0,0.0518036-0.0009003,0.0777054-0.0028992l1.9940948-0.153801   c0.5508041-0.0424995,0.9628983-0.5233994,0.9204025-1.0737c-0.0424042-0.5513-0.527298-0.964901-1.0737-0.9204025   l-1.9941025,0.153801c-0.5507889,0.0424004-0.9628983,0.5233994-0.9203949,1.0737   C102.0258942,39.1416016,102.4638901,39.5400009,102.9813919,39.5400009z"/><path d="M96.0028915,39.0766983C96.0434952,39.6011009,96.4813919,40,96.9990005,40   c0.0253906,0,0.051796-0.0009995,0.0776901-0.0028992l1.9941025-0.1533012   c0.5508041-0.0424995,0.9628983-0.5229988,0.9204025-1.0737991c-0.0425034-0.5503006-0.5243988-0.9608994-1.0737-0.9203987   l-1.9942017,0.1532974C96.3725967,38.0453987,95.9603958,38.5259018,96.0028915,39.0766983z"/><path d="M102.8461914,55.169899c-0.3731003-0.4057007-1.0043945-0.4344978-1.4131012-0.0615005   c-0.4067001,0.3730011-0.4345932,1.0059013-0.0614929,1.4131012l1.3510971,1.4746017   c0.197197,0.214798,0.4667969,0.3241997,0.7377014,0.3241997c0.2412949,0,0.4829941-0.0869026,0.6753006-0.2627029   c0.4067993-0.3729973,0.4346008-1.0057983,0.0615997-1.4130974L102.8461914,55.169899z"/><path d="M93.3241959,46.2626991c-0.407196,0.3735008-0.4346008,1.0059013-0.0615005,1.4131012l1.3516006,1.4740982   c0.197197,0.2153015,0.4667969,0.3241997,0.7378006,0.3241997c0.2411957,0,0.4832993-0.0868988,0.6751938-0.2626991   c0.4073029-0.3735008,0.4346008-1.0057983,0.0615997-1.4130974l-1.351593-1.474102   C94.3646927,45.9174995,93.7313919,45.8895988,93.3241959,46.2626991z"/><path d="M97.3783951,50.6855011c-0.4072037,0.3731003-0.4346008,1.0058975-0.0615005,1.4130974l1.3516006,1.4746017   c0.197197,0.2154007,0.4667969,0.3242989,0.7378006,0.3242989c0.2411957,0,0.4832993-0.086998,0.6752014-0.2626991   c0.4072952-0.3731003,0.4345932-1.0059013,0.0615997-1.4131012l-1.3516006-1.4745979   C98.4188919,50.3398018,97.7855911,50.3120003,97.3783951,50.6855011z"/><path d="M97.8153915,44.8378983c0.378006,0,0.7397995-0.2152977,0.908699-0.5810966   c0.2310028-0.5014,0.0121994-1.0957031-0.4891968-1.3271027l-1.8160019-0.8378983   c-0.5018921-0.2313995-1.0956955-0.0116997-1.327095,0.4892998c-0.2310028,0.5014-0.0121994,1.0956993,0.489296,1.3270988   l1.8159103,0.8379021C97.532692,44.8086014,97.675293,44.8378983,97.8153915,44.8378983z"/><path d="M106.476593,48.9370003l1.8159027,0.8378983c0.1356964,0.0625,0.2782974,0.0923004,0.418396,0.0923004   c0.3779984,0,0.7397995-0.2157974,0.908699-0.5816002c0.2310028-0.5014,0.0121994-1.0956993-0.4891968-1.3270988   l-1.8159027-0.8378983c-0.5019989-0.2314034-1.0956955-0.0122032-1.3271942,0.4892998   C105.7562943,48.1113014,105.97509,48.7056007,106.476593,48.9370003z"/><path d="M101.0287933,46.4219017l1.8159027,0.838398c0.1357956,0.0629005,0.2779007,0.0922012,0.4184952,0.0922012   c0.3778992,0,0.7397003-0.2153015,0.9082031-0.5810013c0.2319031-0.5009995,0.0127029-1.0951996-0.4888-1.3266983   l-1.8159027-0.8384018c-0.5009995-0.232399-1.096199-0.0130997-1.3266907,0.4888   C100.3080902,45.596199,100.5272903,46.1903992,101.0287933,46.4219017z"/></g><text x="0" y="143" fill="#000000" font-size="5px" font-weight="bold" font-family="'Helvetica Neue', Helvetica, Arial-Unicode, Arial, Sans-serif">Created by priyanka</text><text x="0" y="148" fill="#000000" font-size="5px" font-weight="bold" font-family="'Helvetica Neue', Helvetica, Arial-Unicode, Arial, Sans-serif">from the Noun Project</text></svg>