<svg xmlns:dc="http://purl.org/dc/elements/1.1/" xmlns:cc="http://creativecommons.org/ns#" xmlns:rdf="http://www.w3.org/1999/02/22-rdf-syntax-ns#" xmlns:svg="http://www.w3.org/2000/svg" xmlns="http://www.w3.org/2000/svg" xmlns:sodipodi="http://sodipodi.sourceforge.net/DTD/sodipodi-0.dtd" xmlns:inkscape="http://www.inkscape.org/namespaces/inkscape" version="1.1" viewBox="0 0 32 40" x="0px" y="0px"><g transform="translate(0,-1020.3622)"><path style="color:#000000;font-style:normal;font-variant:normal;font-weight:normal;font-stretch:normal;font-size:medium;line-height:normal;font-family:sans-serif;font-variant-ligatures:normal;font-variant-position:normal;font-variant-caps:normal;font-variant-numeric:normal;font-variant-alternates:normal;font-feature-settings:normal;text-indent:0;text-align:start;text-decoration:none;text-decoration-line:none;text-decoration-style:solid;text-decoration-color:#000000;letter-spacing:normal;word-spacing:normal;text-transform:none;writing-mode:lr-tb;direction:ltr;text-orientation:mixed;dominant-baseline:auto;baseline-shift:baseline;text-anchor:start;white-space:normal;shape-padding:0;clip-rule:nonzero;display:inline;overflow:visible;visibility:visible;opacity:1;isolation:auto;mix-blend-mode:normal;color-interpolation:sRGB;color-interpolation-filters:linearRGB;solid-color:#000000;solid-opacity:1;vector-effect:none;fill:#000000;fill-opacity:1;fill-rule:nonzero;stroke:none;stroke-width:1;stroke-linecap:round;stroke-linejoin:round;stroke-miterlimit:4;stroke-dasharray:none;stroke-dashoffset:0;stroke-opacity:1;color-rendering:auto;image-rendering:auto;shape-rendering:auto;text-rendering:auto;enable-background:accumulate" d="m 9.8180104,1024.3623 c -4.39893,0 -7.97656,3.5682 -7.97656,7.959 0,2.004 0.53015,3.8569 1.37695,5.541 h -1.43554 a 0.50005,0.50005 0 1 0 0,1 h 1.98242 c 1.19272,1.9866 2.81022,3.7061 4.48047,5.1094 1.65029,1.3864 3.3567396,2.4715 4.7890596,3.2168 0.716161,0.3726 1.364531,0.6614 1.908201,0.8593 0.54368,0.198 0.96119,0.3145 1.33985,0.3145 0.49863,0 1.08944,-0.1965 1.88672,-0.5312 0.79728,-0.3348 1.75721,-0.821 2.79296,-1.4512 a 0.50044772,0.50044772 0 1 0 -0.51953,-0.8555 c -0.99675,0.6065 -1.91872,1.0735 -2.66015,1.3848 -0.74143,0.3113 -1.34487,0.4531 -1.5,0.4531 -0.11781,0 -0.50781,-0.077 -0.99805,-0.2559 -0.49024,-0.1784 -1.10319,-0.4488 -1.787111,-0.8046 -1.36783,-0.7117 -3.022589,-1.7626 -4.6093696,-3.0957 -1.45825,-1.2252 -2.8381,-2.6938 -3.91993,-4.3438 h 1.31446 a 0.50005,0.50005 0 0 0 0.35351,-0.1465 l 1.50977,-1.5097 1.68945,3.3808 a 0.50005,0.50005 0 0 0 0.9277406,-0.086 l 1.597649,-5.5958 1.457031,3.6426 a 0.50005,0.50005 0 0 0 0.46485,0.3144 h 4 v 1.5 l 2,-2 -2,-2 v 1.5 h -3.66211 l -1.873051,-4.6855 a 0.50005,0.50005 0 0 0 -0.4707,-0.3125 0.50005,0.50005 0 0 0 -0.47461,0.3613 l -1.646489,5.7637 -1.4257806,-2.8496 a 0.50005,0.50005 0 0 0 -0.80078,-0.1309 l -1.85351,1.8535 h -1.70508 c -0.92834,-1.6875 -1.5293,-3.5402 -1.5293,-5.541 0,-3.849 3.1168,-6.959 6.97656,-6.959 2.4891296,0 4.7859706,1.3275 6.0312506,3.4766 a 0.50005,0.50005 0 0 0 0.86524,0 c 1.24578,-2.1499 3.54393,-3.4766 6.0332,-3.4766 3.85977,0 6.97656,3.11 6.97656,6.959 0,3.2066 -1.48418,6.0509 -3.51172,8.3985 a 0.50059955,0.50059955 0 0 0 0.75782,0.6543 c 2.13126,-2.4677 3.7539,-5.5381 3.7539,-9.0528 0,-4.3907 -3.57763,-7.9589 -7.97656,-7.9589 -2.60426,0 -4.98315,1.3137 -6.4668,3.414 -1.48321,-2.099 -3.860351,-3.4104 -6.4628906,-3.414 z m 12.8457106,2.4043 a 0.75016274,0.75016274 0 0 0 0.0312,1.5 c 1.32595,-0.028 2.32189,0.4935 3.05664,1.4121 0.73474,0.9186 1.17773,2.267 1.17773,3.8379 a 0.750075,0.750075 0 1 0 1.5,0 c 0,-1.8505 -0.5122,-3.5331 -1.50586,-4.7754 -0.99365,-1.2423 -2.49931,-2.0117 -4.25976,-1.9746 z m 1.76562,15.9648 a 0.50005,0.50005 0 0 0 -0.0488,0 0.50005,0.50005 0 0 0 -0.30273,0.129 c -0.50239,0.4408 -1.01494,0.8519 -1.52539,1.2343 a 0.50020316,0.50020316 0 0 0 0.59961,0.8008 c 0.52983,-0.397 1.06287,-0.8262 1.58594,-1.2851 a 0.50005,0.50005 0 0 0 -0.3086,-0.8809 z"/></g><style type="text/css">
	.st0{fill:#030102;}
</style><text x="0" y="47" fill="#000000" font-size="5px" font-weight="bold" font-family="'Helvetica Neue', Helvetica, Arial-Unicode, Arial, Sans-serif">Created by Dev Patel</text><text x="0" y="52" fill="#000000" font-size="5px" font-weight="bold" font-family="'Helvetica Neue', Helvetica, Arial-Unicode, Arial, Sans-serif">from the Noun Project</text></svg>