<svg xmlns="http://www.w3.org/2000/svg" xmlns:xlink="http://www.w3.org/1999/xlink" version="1.1" x="0px" y="0px" viewBox="0 0 96 120" enable-background="new 0 0 96 96" xml:space="preserve"><g><path fill="#000000" d="M20.285,94.25h55.43c7.306,0,13.25-5.944,13.25-13.25V15c0-7.306-5.944-13.25-13.25-13.25h-55.43   c-7.306,0-13.25,5.944-13.25,13.25v66C7.035,88.306,12.979,94.25,20.285,94.25z M9.535,15c0-5.928,4.822-10.75,10.75-10.75h55.43   c5.928,0,10.75,4.822,10.75,10.75v66c0,5.928-4.822,10.75-10.75,10.75H49.25V61.101c6.141-0.811,12.395-7.429,14.34-15.447   l4.701-19.379c1.032-4.258,0.271-8.293-2.142-11.362c-2.414-3.069-6.156-4.759-10.538-4.759H40.391   c-4.382,0-8.124,1.69-10.538,4.759c-2.413,3.069-3.174,7.104-2.142,11.363l4.699,19.378c1.945,8.02,8.199,14.638,14.34,15.448   V91.75H20.285c-5.928,0-10.75-4.822-10.75-10.75V15z M48,58.686c-5.343,0-11.369-6.238-13.16-13.622l-4.699-19.378   c-0.849-3.498-0.253-6.774,1.678-9.229c1.93-2.454,4.974-3.805,8.572-3.805h15.221c3.599,0,6.644,1.351,8.573,3.805   s2.524,5.731,1.677,9.228L61.16,45.064C59.369,52.448,53.343,58.686,48,58.686z"/><path fill="#000000" d="M60.09,28.045c0-6.665-5.424-12.087-12.09-12.087s-12.09,5.422-12.09,12.087   c0,6.666,5.424,12.089,12.09,12.089S60.09,34.711,60.09,28.045z M48,37.634c-5.288,0-9.59-4.302-9.59-9.589   c0-5.286,4.302-9.587,9.59-9.587s9.59,4.301,9.59,9.587C57.59,33.333,53.288,37.634,48,37.634z"/><path fill="#000000" d="M49.25,24.812v-3.749c0-0.69-0.56-1.25-1.25-1.25s-1.25,0.56-1.25,1.25v3.749   c-1.299,0.504-2.227,1.759-2.227,3.234c0,1.918,1.56,3.479,3.477,3.479s3.477-1.561,3.477-3.479   C51.477,26.571,50.549,25.315,49.25,24.812z M48,29.024c-0.538,0-0.977-0.439-0.977-0.979c0-0.538,0.438-0.976,0.977-0.976   s0.977,0.438,0.977,0.976C48.977,28.585,48.538,29.024,48,29.024z"/><path fill="#000000" d="M75.191,89.261c2.642,0,4.695-0.84,6.104-2.496c2.615-3.074,1.883-7.804,1.85-8.003   c-0.111-0.683-0.764-1.149-1.434-1.033c-0.682,0.11-1.145,0.753-1.033,1.434c0.006,0.038,0.558,3.813-1.287,5.983   c-0.925,1.087-2.299,1.615-4.2,1.615c-0.69,0-1.25,0.56-1.25,1.25S74.501,89.261,75.191,89.261z"/></g><text x="0" y="111" fill="#000000" font-size="5px" font-weight="bold" font-family="'Helvetica Neue', Helvetica, Arial-Unicode, Arial, Sans-serif">Created by faisalovers</text><text x="0" y="116" fill="#000000" font-size="5px" font-weight="bold" font-family="'Helvetica Neue', Helvetica, Arial-Unicode, Arial, Sans-serif">from the Noun Project</text></svg>