<svg viewBox="0 1 511 511.99999" xmlns="http://www.w3.org/2000/svg"><path d="m493.570312 409.507812c-11.050781-.625-20.460937 7.839844-21.070312 18.867188-.65625 11.945312-2.308594 25.894531-3.769531 38.199219-.21875 1.839843-.433594 3.652343-.640625 5.425781-21.710938-.113281-53.613282-2.636719-79.894532-9.425781-29.359374-7.582031-35.714843-16.378907-35.714843-18.152344v-274.753906c0-1.21875.476562-2.367188 1.339843-3.230469 1.683594-1.679688 3.09375-1.664062 4.695313-1.125 13.785156 4.660156 36.03125 19.707031 57.113281 47.972656 17.027344 22.832032 39.601563 62.902344 50.429688 124.128906 1.925781 10.875 12.304687 18.128907 23.179687 16.210938 10.875-1.925781 18.132813-12.300781 16.207031-23.179688-9.652343-54.570312-29.625-103.351562-57.753906-141.070312-22.910156-30.714844-50.746094-53.296875-76.378906-61.953125-16.394531-5.542969-33.5-1.53125-45.765625 10.722656-8.425781 8.421875-13.066406 19.617188-13.066406 31.527344v79.203125c-18.785157-11.175781-30.492188-22.636719-35.941407-35.082031-.003906-.355469-.03125-.710938-.058593-1.0625v-72.738281c0-11.046876-8.953125-20-19.996094-20-11.046875 0-20 8.953124-20 20v67.75c-.523437 1.558593-.867187 3.171874-.996094 4.8125-6.910156 14.523437-18.476562 26.65625-35 36.664062v-80.550781c0-11.90625-4.644531-23.105469-13.070312-31.527344-12.261719-12.25-29.371094-16.261719-45.765625-10.722656-31.984375 10.804687-66.191406 42.605469-91.503906 85.0625-22.648438 37.996093-49.648438 103.964843-49.648438 202.464843 0 14.945313 1.644531 36.695313 4.882812 64.644532 2.207032 19.03125 18.53125 33.378906 37.972657 33.378906 11.730469 0 53-.769531 91.425781-10.699219 17.597656-4.546875 31.789062-10.410156 42.175781-17.433593 19.449219-13.144532 23.53125-28.707032 23.53125-39.445313v-150.164063c23.5625-10.515624 41.9375-23.710937 55.402344-39.84375 15.929687 17.957032 37.59375 30.636719 56.589844 39.820313v150.21875c0 10.738281 4.082031 26.300781 23.53125 39.445313 10.386719 7.019531 24.578125 12.886718 42.175781 17.433593 38.425781 9.929688 79.695312 10.699219 91.425781 10.699219 19.441407 0 35.765625-14.347656 37.972657-33.375.273437-2.375.566406-4.828125.863281-7.339844 1.527343-12.894531 3.261719-27.507812 3.988281-40.710937.609375-11.027344-7.839844-20.460938-18.867188-21.066407zm-333.078124 34.882813c0 1.773437-6.355469 10.570313-35.714844 18.152344-26.28125 6.789062-58.183594 9.3125-79.894532 9.425781-2.871093-25.113281-4.386718-45.144531-4.386718-58.023438 0-89.394531 23.933594-148.304687 44.011718-181.980468 24.25-40.6875 52.835938-61.871094 69.945313-67.652344.585937-.195312 1.148437-.324219 1.707031-.324219.964844 0 1.921875.382813 2.988282 1.449219.863281.863281 1.34375 2.011719 1.34375 3.230469zm75.992187-365.394531c0-11.046875 8.953125-20 20-20s20 8.953125 20 20c0 11.042968-8.953125 19.996094-20 19.996094-11.042969 0-20-8.953126-20-19.996094zm0-58.996094c0-11.046875 8.953125-20 20-20s20 8.953125 20 20c0 11.042969-8.953125 19.996094-20 19.996094-11.042969 0-20-8.953125-20-19.996094zm0 0"/></svg>